<svg width="30" height="30" viewBox="0 0 30 30" fill="none" xmlns="http://www.w3.org/2000/svg">
<path fill-rule="evenodd" clip-rule="evenodd" d="M14.8565 29.2686C22.8161 29.2686 29.2686 22.8161 29.2686 14.8565C29.2686 6.89691 22.8161 0.444404 14.8565 0.444404C6.89691 0.444404 0.444404 6.89691 0.444404 14.8565C0.444404 22.8161 6.89691 29.2686 14.8565 29.2686ZM14.8565 29.713C23.0615 29.713 29.713 23.0615 29.713 14.8565C29.713 6.65148 23.0615 0 14.8565 0C6.65148 0 0 6.65148 0 14.8565C0 23.0615 6.65148 29.713 14.8565 29.713Z" fill="#4D6D9A"/>
<path fill-rule="evenodd" clip-rule="evenodd" d="M14.8551 3.04413C9.00969 3.04413 4.15557 7.29026 3.20963 12.8664L2.77148 12.7921C3.75307 7.00581 8.78933 2.59973 14.8551 2.59973C17.6943 2.59973 20.3087 3.56539 22.3867 5.18605L22.1134 5.53647C20.1107 3.97455 17.5919 3.04413 14.8551 3.04413ZM14.8551 26.6689C20.5995 26.6689 25.3866 22.5683 26.4481 17.1345L26.8842 17.2197C25.7828 22.8582 20.8161 27.1133 14.8551 27.1133C12.1434 27.1133 9.63675 26.2324 7.60662 24.7413L7.8697 24.3831C9.82614 25.8201 12.2412 26.6689 14.8551 26.6689Z" fill="#4D6D9A"/>
<path fill-rule="evenodd" clip-rule="evenodd" d="M22.4816 5.25705L7.71845 24.8109L7.36378 24.5431L22.1269 4.98928L22.4816 5.25705Z" fill="#4D6D9A"/>
<path fill-rule="evenodd" clip-rule="evenodd" d="M11.8131 2.96497C7.05095 4.17994 3.40247 8.1802 2.70508 13.1284H11.8131V2.96497ZM26.9705 16.827C26.1643 21.8224 22.3426 25.8082 17.4328 26.8573V16.827H26.9705Z" fill="#4D6D9A"/>
</svg>
